Coordinates
version=1
nRows=34
nColumns=38
inDegrees=no

Units are S.I. units (second, meters, Newtons, ...)
If the header above contains a line with 'inDegrees', this indicates whether rotational values are in degrees (yes) or radians (no).

endheader
time	pelvis_tilt	pelvis_list	pelvis_rotation	pelvis_tx	pelvis_ty	pelvis_tz	hip_flexion_r	hip_adduction_r	hip_rotation_r	knee_angle_r	ankle_angle_r	subtalar_angle_r	mtp_angle_r	hip_flexion_l	hip_adduction_l	hip_rotation_l	knee_angle_l	ankle_angle_l	subtalar_angle_l	mtp_angle_l	lumbar_extension	lumbar_bending	lumbar_rotation	arm_flex_r	arm_add_r	arm_rot_r	elbow_flex_r	pro_sup_r	wrist_flex_r	wrist_dev_r	arm_flex_l	arm_add_l	arm_rot_l	elbow_flex_l	pro_sup_l	wrist_flex_l	wrist_dev_l
0.53	0.616539	1.38735	1.11238	0.655953	0.147062	1.03435	0.448923	-0.016617	-0.207257	0	-0.197281	0	0	-0.122431	-0.0982084	-0.274409	0.131513	-0.0902073	0	0	-0.0491548	0.00747096	-0.118656	-0.0287503	-0.414529	0.552016	0.552743	0.890277	0	0	-0.0757295	-0.667574	0.0823616	1.00831	1.36587	0	0
0.54	0.590069	1.38677	1.14508	0.657053	0.16086	1.03149	0.451191	-0.0204672	-0.219422	0	-0.19414	0	0	-0.126594	-0.100104	-0.275561	0.145163	-0.0840817	0	0	-0.0461401	0.00181702	-0.125197	-0.0298544	-0.413398	0.557122	0.553109	0.892928	0	0	-0.0861012	-0.672246	0.0764409	1.0191	1.37635	0	0
0.55	0.576342	1.38652	1.16394	0.658241	0.174865	1.02888	0.451658	-0.0215353	-0.228245	0	-0.186521	0	0	-0.130883	-0.104261	-0.276866	0.161669	-0.0791464	0	0	-0.0446167	-0.00106486	-0.128771	-0.0316576	-0.413479	0.562102	0.553634	0.893269	0	0	-0.0936127	-0.674157	0.0719576	1.026	1.38575	0	0
0.56	0.573162	1.38671	1.17108	0.659471	0.189011	1.02653	0.44986	-0.0200803	-0.231815	0	-0.180269	0	0	-0.135073	-0.110143	-0.277925	0.181547	-0.0747493	0	0	-0.0449163	-0.00150238	-0.130134	-0.0336606	-0.414462	0.565615	0.554505	0.892006	0	0	-0.0993238	-0.674331	0.069261	1.03024	1.39436	0	0
0.57	0.57811	1.38738	1.16876	0.660755	0.203364	1.02447	0.447215	-0.0167872	-0.230141	0	-0.179266	0	0	-0.139517	-0.117024	-0.277799	0.20326	-0.0735718	0	0	-0.0464551	-6.81123e-05	-0.129436	-0.0358808	-0.415535	0.566611	0.554685	0.891258	0	0	-0.103842	-0.673076	0.0685704	1.03179	1.39925	0	0
0.58	0.593491	1.38877	1.15523	0.662071	0.218012	1.02272	0.443889	-0.0115536	-0.224226	0	-0.182314	0	0	-0.144176	-0.125448	-0.276819	0.228961	-0.0724726	0	0	-0.0496557	0.00333914	-0.127776	-0.0378756	-0.417108	0.568173	0.554791	0.890961	0	0	-0.108747	-0.670469	0.0673758	1.0319	1.4036	0	0
0.59	0.61828	1.39137	1.13191	0.663408	0.232966	1.02129	0.439155	-0.00512407	-0.214194	0	-0.193119	0	0	-0.14949	-0.134971	-0.274967	0.257956	-0.0718391	0	0	-0.0547026	0.00819338	-0.125895	-0.0393539	-0.418736	0.569978	0.554191	0.890329	0	0	-0.114142	-0.666443	0.0654997	1.02989	1.40821	0	0
0.6	0.655307	1.39454	1.09466	0.664766	0.247927	1.02027	0.43115	0.00331916	-0.202056	0	-0.244374	0	0	-0.154388	-0.145618	-0.272601	0.291906	-0.0717073	0	0	-0.0624802	0.0156102	-0.12292	-0.0382602	-0.421977	0.576451	0.553335	0.884328	0	0	-0.119852	-0.657888	0.0573504	1.02536	1.41866	0	0
0.61	0.683017	1.39406	1.06541	0.666128	0.26285	1.01935	0.43005	0.0101665	-0.197656	0.0179333	-0.281574	0	0	-0.152349	-0.1552	-0.264898	0.329761	-0.076234	0	0	-0.0657312	0.0231927	-0.118339	-0.0370419	-0.423846	0.582533	0.548784	0.878721	0	0	-0.124624	-0.648317	0.0524588	1.01717	1.42511	0	0
0.62	0.712238	1.3918	1.0333	0.667568	0.277712	1.01878	0.435418	0.0164788	-0.201264	0.0509076	-0.304976	0	0	-0.146008	-0.165278	-0.25389	0.372517	-0.0838367	0	0	-0.0679888	0.0321193	-0.111788	-0.0357866	-0.426051	0.589306	0.544287	0.871625	0	0	-0.127974	-0.637074	0.0485584	1.00586	1.42991	0	0
0.63	0.813244	1.35443	0.918066	0.669097	0.290424	1.02172	0.512944	0.0310873	-0.384242	0.22123	-0.305856	0	0	-0.111229	-0.206203	-0.239263	0.428821	-0.0998831	0	0	-0.056927	0.0830638	-0.0855591	-0.0181035	-0.4317	0.616908	0.510128	0.84906	0	0	-0.104858	-0.595383	0.0479382	0.956771	1.45891	0	0
0.64	0.839728	1.35036	0.886541	0.670895	0.305112	1.02181	0.51798	0.0380971	-0.388397	0.258197	-0.296605	0	0	-0.0978763	-0.217194	-0.227387	0.485727	-0.115893	0	0	-0.0582711	0.0930823	-0.076321	-0.0182426	-0.43438	0.624763	0.508836	0.836715	0	0	-0.107619	-0.582435	0.0441635	0.940869	1.46289	0	0
0.65	0.804703	1.37553	0.926042	0.672826	0.321523	1.01903	0.469362	0.0422704	-0.226267	0.197738	-0.262874	0	0	-0.0990881	-0.1996	-0.214183	0.544833	-0.136053	0	0	-0.0660439	0.0657405	-0.0847121	-0.0330818	-0.434875	0.62147	0.535745	0.825502	0	0	-0.135697	-0.593252	0.0342409	0.95525	1.44932	0	0
0.66	0.844344	1.3714	0.880707	0.67467	0.335626	1.01981	0.473826	0.0538866	-0.22714	0.243384	-0.238232	0	0	-0.0799711	-0.211613	-0.202779	0.612902	-0.160271	0	0	-0.0695374	0.0784206	-0.0752767	-0.0328677	-0.437081	0.625079	0.536271	0.817408	0	0	-0.138117	-0.580532	0.0345522	0.938385	1.44409	0	0
0.67	0.879009	1.36766	0.841334	0.676511	0.349442	1.02055	0.476112	0.0649862	-0.224275	0.283893	-0.212043	0	0	-0.0579049	-0.222704	-0.19101	0.683794	-0.186573	0	0	-0.0731855	0.0900057	-0.0679268	-0.032106	-0.438209	0.628672	0.536854	0.808756	0	0	-0.142431	-0.568021	0.0327347	0.922661	1.44001	0	0
0.68	0.910149	1.36547	0.806337	0.678402	0.363106	1.0212	0.472463	0.0755556	-0.222026	0.311784	-0.188936	0	0	-0.0351088	-0.232205	-0.179752	0.754636	-0.213304	0	0	-0.0783802	0.0994303	-0.0620988	-0.0312844	-0.43849	0.632171	0.538683	0.80152	0	0	-0.14807	-0.557222	0.0309089	0.909111	1.43359	0	0
0.69	0.938111	1.36494	0.776852	0.680226	0.3767	1.02168	0.462402	0.0842864	-0.224484	0.32719	-0.170619	0	0	-0.0113937	-0.239687	-0.167203	0.824176	-0.237883	0	0	-0.0844454	0.106147	-0.0593535	-0.0309203	-0.43725	0.633681	0.541639	0.795224	0	0	-0.155298	-0.548888	0.029718	0.898119	1.42323	0	0
0.7	0.96007	1.36533	0.756179	0.681899	0.390223	1.02194	0.448895	0.0902384	-0.232157	0.336108	-0.149611	0	0	0.0144498	-0.24492	-0.152682	0.89156	-0.266941	0	0	-0.0895256	0.110309	-0.060074	-0.0315558	-0.435543	0.63423	0.546644	0.787964	0	0	-0.163636	-0.543692	0.0319945	0.888996	1.40801	0	0
0.71	0.979126	1.36658	0.739518	0.683373	0.403531	1.02221	0.433317	0.0946105	-0.237718	0.342563	-0.132458	0	0	0.0409336	-0.247932	-0.13783	0.955078	-0.294431	0	0	-0.0945309	0.112398	-0.0622662	-0.0326241	-0.43381	0.63272	0.553416	0.782883	0	0	-0.172339	-0.540197	0.0358876	0.881472	1.39317	0	0
0.72	0.992996	1.36792	0.727772	0.684658	0.416567	1.0227	0.416154	0.098504	-0.241976	0.342942	-0.116983	0	0	0.0681322	-0.248907	-0.124039	1.0136	-0.318426	0	0	-0.0986947	0.113339	-0.0639504	-0.0333549	-0.431866	0.630829	0.558889	0.778326	0	0	-0.179386	-0.537435	0.0436461	0.872911	1.37671	0	0
0.73	1.07971	1.34069	0.632837	0.685614	0.427959	1.02752	0.418503	0.110958	-0.427768	0.374485	-0.145131	0	0	0.100612	-0.285171	-0.117886	1.06284	-0.335099	0	0	-0.107469	0.154434	-0.043224	-0.0196116	-0.434796	0.641916	0.540118	0.765636	0	0	-0.154528	-0.513725	0.068701	0.828872	1.37025	0	0
0.74	1.02006	1.37254	0.701825	0.687095	0.442356	1.02476	0.38088	0.106217	-0.241877	0.344068	-0.0916068	0	0	0.117726	-0.247618	-0.106866	1.11568	-0.303674	0	0	-0.108271	0.112634	-0.0611447	-0.0332769	-0.428089	0.633165	0.564139	0.760827	0	0	-0.185611	-0.535549	0.0762155	0.851118	1.34239	0	0
0.75	1.03304	1.3762	0.68812	0.688352	0.455264	1.02628	0.363747	0.1098	-0.238462	0.346726	-0.0783386	0	0	0.139441	-0.245223	-0.103767	1.15849	-0.27204	0	0	-0.114248	0.110763	-0.0581564	-0.0325497	-0.42477	0.632395	0.563064	0.757316	0	0	-0.187272	-0.534269	0.0932509	0.838615	1.33223	0	0
0.76	1.04712	1.37932	0.671823	0.689591	0.467959	1.02818	0.344889	0.115269	-0.236694	0.341634	-0.0701466	0	0	0.160432	-0.242714	-0.103525	1.19588	-0.229374	0	0	-0.121041	0.109717	-0.0525892	-0.0310319	-0.422067	0.631876	0.560466	0.751963	0	0	-0.186251	-0.532076	0.112695	0.823781	1.32777	0	0
0.77	1.06259	1.38322	0.652228	0.69084	0.480533	1.03042	0.322531	0.121264	-0.23501	0.328248	-0.067543	0	0	0.179535	-0.239069	-0.106266	1.22683	-0.190165	0	0	-0.129464	0.10793	-0.0451022	-0.0284511	-0.419862	0.632607	0.557131	0.747856	0	0	-0.184963	-0.527959	0.127693	0.809023	1.32743	0	0
0.78	1.08035	1.38867	0.629935	0.692051	0.493072	1.03289	0.299327	0.125529	-0.230282	0.316983	-0.065336	0	0	0.196533	-0.233778	-0.110283	1.2509	-0.151583	0	0	-0.139161	0.104634	-0.0370063	-0.0259691	-0.417755	0.632881	0.553648	0.743873	0	0	-0.183474	-0.523763	0.141371	0.794986	1.3259	0	0
0.79	1.09933	1.39548	0.606553	0.693181	0.505543	1.03552	0.275916	0.127555	-0.222903	0.30868	-0.0626849	0	0	0.212083	-0.226943	-0.114501	1.26801	-0.117797	0	0	-0.149396	0.0998289	-0.0293813	-0.0233358	-0.41543	0.632899	0.549571	0.740601	0	0	-0.182197	-0.520094	0.154829	0.781743	1.32396	0	0
0.8	1.06153	1.41022	0.641437	0.694184	0.518316	1.03653	0.246986	0.101572	-0.198875	0.293199	-0.0612644	0	0	0.230258	-0.205448	-0.117858	1.28064	-0.0872098	0	0	-0.15174	0.080801	-0.0277863	-0.0261694	-0.411947	0.629783	0.551088	0.739448	0	0	-0.190984	-0.522713	0.164439	0.778794	1.31858	0	0
0.81	1.12313	1.40782	0.57473	0.695227	0.53038	1.04043	0.227797	0.128926	-0.214248	0.290112	-0.0596154	0	0	0.245106	-0.212139	-0.118906	1.28306	-0.0665624	0	0	-0.163954	0.0886718	-0.0166299	-0.0192137	-0.410313	0.633164	0.539216	0.738373	0	0	-0.182964	-0.513702	0.179493	0.757842	1.31611	0	0
0.82	1.12994	1.41318	0.56564	0.696102	0.542538	1.04266	0.204666	0.128577	-0.215707	0.278512	-0.0599828	0	0	0.263058	-0.20435	-0.116613	1.28251	-0.0499902	0	0	-0.169647	0.0830209	-0.0127244	-0.0174843	-0.408238	0.633492	0.535501	0.736673	0	0	-0.184839	-0.510391	0.187274	0.747761	1.31179	0	0
0.83	1.13643	1.41875	0.557051	0.696875	0.554586	1.04485	0.180805	0.12757	-0.218801	0.263811	-0.0620749	0	0	0.280201	-0.195973	-0.11288	1.27634	-0.0354615	0	0	-0.175589	0.07718	-0.0094422	-0.0153948	-0.406653	0.634542	0.532205	0.735519	0	0	-0.186775	-0.507546	0.194727	0.738549	1.30543	0	0
0.84	1.14102	1.42435	0.549709	0.697626	0.566664	1.04691	0.157187	0.126193	-0.222639	0.248541	-0.0653218	0	0	0.29624	-0.187473	-0.109363	1.26458	-0.023694	0	0	-0.181012	0.0711978	-0.00575979	-0.0139403	-0.405729	0.635409	0.5298	0.734696	0	0	-0.189311	-0.504725	0.201139	0.730195	1.29665	0	0
0.85	1.14023	1.42935	0.546976	0.698341	0.578766	1.0487	0.135435	0.124809	-0.228106	0.234469	-0.0691697	0	0	0.311877	-0.179562	-0.107026	1.24763	-0.0136931	0	0	-0.185113	0.0654272	-0.00152409	-0.0135602	-0.405677	0.635582	0.528784	0.734355	0	0	-0.192611	-0.50179	0.206399	0.7228	1.28617	0	0
0.86	1.12833	1.43317	0.555549	0.698986	0.590771	1.05014	0.116689	0.123475	-0.234965	0.221686	-0.0730263	0	0	0.328825	-0.171898	-0.104997	1.22607	-0.00447101	0	0	-0.187084	0.0599175	0.00258125	-0.0139375	-0.406064	0.635116	0.52854	0.734798	0	0	-0.195951	-0.498771	0.210978	0.71542	1.27417	0	0
